<?xml version="1.0" encoding="UTF-8"?>
<svg xmlns="http://www.w3.org/2000/svg" version="1.1" viewBox="0 0 16 16" width="16" height="16">
  <style>
    path { fill: #000; }
    @media (prefers-color-scheme: dark) { path { fill: #fff; } }
  </style>
  <path d="M3.7,11.5c.2-.7.4-1.1.5-1.3l2.7-4.7c.2-.4.6-.6,1.1-.6s.8.2,1.1.6c.6,1.1,1.9,3.3,2.7,4.7.7,1.1.7,2.2.6,2.8.2-.3,1.5-2.2,0-4.9-1.1-1.8-2.6-4.4-3.6-6.1-.4-.6-1.3-.6-1.7,0l-3.5,6.1s-1.5,2.2,0,5h0c-.2-.6,0-1.2,0-1.7Z"/>
  <path d="M5,13.2c.1-.5.3-.8.3-.9l1.9-3.2c.2-.3.4-.4.8-.4s.6.2.8.4c.5.8,1.3,2.3,1.9,3.3.5.8.5,1.5.4,2,.1-.2,1.1-1.6,0-3.4-.8-1.3-1.8-3.1-2.5-4.2-.3-.5-.9-.5-1.1,0l-2.4,4.2s-1.1,1.5,0,3.4h0c-.1-.4,0-.8,0-1.1Z"/>
</svg>